# xmcd
#
# Track frame offsets:
#	150
#	18592
#	44101
#	63312
#	82004
#	98201
#	118587
#	134494
#	161300
#
# Disc length: 2610 seconds
# Revision: 0
# Processed by: cddbd v1.5.2PL0 Copyright (c) Steve Scherf et al.
# Submitted via: dBpowerAMP V12.0
#
DISCID=790a3009
DTITLE=Jerry Jeff Walker - Viva Terlingia! [MCA] (L)
DYEAR=1973
DGENRE=Country Rock
TTITLE0=Gettin' By
TTITLE1=Desperados Waiting For The Train
TTITLE2=Sangria Wine
TTITLE3=Little Bird
TTITLE4=Get It Out
TTITLE5=Up Against The Wall Red Neck
TTITLE6=Backsliders Wine
TTITLE7=Wheel
TTITLE8=London Homesick Blues
EXTD=
EXTT0=
EXTT1=
EXTT2=
EXTT3=
EXTT4=
EXTT5=
EXTT6=
EXTT7=
EXTT8=
PLAYORDER=
